<?xml version="1.0" encoding="iso-8859-1"?>
<!-- Generator: Adobe Illustrator 19.0.0, SVG Export Plug-In . SVG Version: 6.00 Build 0)  -->
<svg version="1.1" id="Layer_1" xmlns="http://www.w3.org/2000/svg" xmlns:xlink="http://www.w3.org/1999/xlink" x="0px" y="0px"
	 viewBox="0 0 495 495" style="enable-background:new 0 0 495 495;" xml:space="preserve">
<g>
	<path style="fill:#D8D7DA;" d="M247.5,153.75v73.75h55.52c-0.626-21.034-2.245-41.488-4.83-61.086
		c-3.397-5.149-6.328-10.577-8.784-16.204C275.61,152.562,261.58,153.75,247.5,153.75z"/>
	<path style="fill:#D8D7DA;" d="M281.592,91.334C268.793,53.787,254.336,40,247.5,40v73.75c11.083,0,22.116-0.892,32.981-2.626
		c-0.046-1.267-0.081-2.534-0.081-3.803C280.4,101.889,280.809,96.551,281.592,91.334z"/>
	<path style="fill:#D8D7DA;" d="M282.15,402.04c1.8-5.41,3.5-11.07,5.08-16.94c-13-2.54-26.3-3.85-39.73-3.85V455
		C254.33,455,269.2,440.9,282.15,402.04z"/>
	<path style="fill:#D8D7DA;" d="M378.052,267.5h-35.008c-0.887,31.503-3.856,61.803-8.723,89.47c22.28,8.35,43.35,19.92,62.52,34.44
		c31.641-32.828,52.593-76.015,57.196-123.91h-56.688l-9.648,12.13L378.052,267.5z"/>
	<path style="fill:#D8D7DA;" d="M295.65,345.98c4.052-24.275,6.565-50.806,7.383-78.48H247.5v73.75
		C263.78,341.25,279.9,342.86,295.65,345.98z"/>
	<path style="fill:#D8D7DA;" d="M454.048,227.5c-0.836-8.795-2.232-17.483-4.17-26.044L429.163,227.5H454.048z"/>
	<path style="fill:#D8D7DA;" d="M343.031,227.5h3.207l-3.352-4.215C342.933,224.691,342.991,226.09,343.031,227.5z"/>
	<path style="fill:#D8D7DA;" d="M325.58,396.49c-1.71,6.29-3.54,12.37-5.48,18.2c-4.07,12.21-8.39,22.63-12.87,31.53
		c21.02-6.33,40.63-15.9,58.27-28.14C352.98,409.41,339.59,402.18,325.58,396.49z"/>
	<path style="fill:#FFFFFF;" d="M212.85,402.04c12.31,36.94,26.35,51.5,33.58,52.86c0.37,0.07,0.73,0.1,1.07,0.1v-73.75
		c-0.36,0-0.71,0-1.07,0.01c-13.07,0.06-26,1.37-38.66,3.84C209.35,390.97,211.05,396.63,212.85,402.04z"/>
	<path style="fill:#FFFFFF;" d="M199.35,345.98c15.4-3.05,31.16-4.66,47.08-4.72c0.36-0.01,0.71-0.01,1.07-0.01V267.5h-55.533
		C192.785,295.174,195.297,321.705,199.35,345.98z"/>
	<path style="fill:#FFFFFF;" d="M151.957,227.5c0.887-31.503,3.856-61.803,8.723-89.47c-22.28-8.35-43.35-19.92-62.52-34.44
		c-31.641,32.828-52.593,76.015-57.196,123.91H151.957z"/>
	<path style="fill:#FFFFFF;" d="M246.43,153.74c-15.92-0.06-31.68-1.67-47.08-4.72c-4.052,24.275-6.565,50.806-7.383,78.48H247.5
		v-73.75C247.14,153.75,246.79,153.75,246.43,153.74z"/>
	<path style="fill:#FFFFFF;" d="M169.42,396.49c-14.01,5.69-27.4,12.92-39.92,21.59c17.64,12.24,37.25,21.81,58.27,28.14
		c-4.48-8.9-8.8-19.32-12.87-31.53C172.96,408.86,171.13,402.78,169.42,396.49z"/>
	<path style="fill:#FFFFFF;" d="M129.5,76.92c12.52,8.67,25.91,15.9,39.92,21.59c1.71-6.29,3.54-12.37,5.48-18.2
		c4.07-12.21,8.39-22.63,12.87-31.53C166.75,55.11,147.14,64.68,129.5,76.92z"/>
	<path style="fill:#FFFFFF;" d="M160.68,356.97c-4.867-27.667-7.837-57.967-8.723-89.47H40.964
		c4.604,47.895,25.555,91.082,57.196,123.91C117.33,376.89,138.4,365.32,160.68,356.97z"/>
	<path style="fill:#FFFFFF;" d="M246.43,40.1c-7.23,1.36-21.27,15.92-33.58,52.86c-1.8,5.41-3.5,11.07-5.08,16.94
		c12.66,2.47,25.59,3.78,38.66,3.84c0.36,0.01,0.71,0.01,1.07,0.01V40C247.16,40,246.8,40.03,246.43,40.1z"/>
	<path style="fill:#004FAC;" d="M471.89,173.781l-22.012,27.676c1.938,8.561,3.334,17.249,4.17,26.044h-24.885l-31.815,40h56.688
		c-4.604,47.895-25.555,91.082-57.196,123.91c-19.17-14.52-40.24-26.09-62.52-34.44c4.867-27.667,7.837-57.967,8.723-89.47h35.008
		l-31.815-40h-3.207c-0.04-1.41-0.098-2.809-0.146-4.215l-39.335-49.455c-1.897-2.398-3.683-4.875-5.36-7.416
		c2.585,19.597,4.204,40.052,4.83,61.086h-56.59v40h56.604c-0.819,27.674-3.331,54.205-7.383,78.48
		c-15.75-3.12-31.87-4.73-48.15-4.73c-0.36,0-0.71,0-1.07,0.01v40c0.36-0.01,0.71-0.01,1.07-0.01c13.43,0,26.73,1.31,39.73,3.85
		c-1.58,5.87-3.28,11.53-5.08,16.94C269.2,440.9,254.33,455,247.5,455c-0.34,0-0.7-0.03-1.07-0.1v40.09
		c0.36,0.01,0.72,0.01,1.07,0.01s0.71,0,1.07-0.01c65.71-0.28,127.45-25.99,173.94-72.48C469.26,375.76,495,313.61,495,247.5
		c0-29.421-5.089-58.079-15.123-85.35C477.477,166.187,474.818,170.079,471.89,173.781z M320.1,414.69
		c1.94-5.83,3.77-11.91,5.48-18.2c14.01,5.69,27.4,12.92,39.92,21.59c-17.64,12.24-37.25,21.81-58.27,28.14
		C311.71,437.32,316.03,426.9,320.1,414.69z"/>
	<path style="fill:#006DF0;" d="M246.43,454.9c-7.23-1.36-21.27-15.92-33.58-52.86c-1.8-5.41-3.5-11.07-5.08-16.94
		c12.66-2.47,25.59-3.78,38.66-3.84v-40c-15.92,0.06-31.68,1.67-47.08,4.72c-4.052-24.275-6.565-50.806-7.383-78.48h54.463v-40
		h-54.463c0.819-27.674,3.331-54.205,7.383-78.48c15.4,3.05,31.16,4.66,47.08,4.72c0.36,0.01,0.71,0.01,1.07,0.01
		c14.08,0,28.11-1.188,41.906-3.54c-5.377-12.317-8.438-25.6-8.925-39.086c-10.865,1.734-21.898,2.626-32.981,2.626
		c-0.36,0-0.71,0-1.07-0.01c-13.07-0.06-26-1.37-38.66-3.84c1.58-5.87,3.28-11.53,5.08-16.94c12.31-36.94,26.35-51.5,33.58-52.86
		c0.37-0.07,0.73-0.1,1.07-0.1c6.836,0,21.293,13.787,34.092,51.334c4.856-32.378,24.23-60.062,51.262-76.204
		c-26.941-9.911-55.231-14.994-84.273-15.117C248.218,0.005,247.858,0,247.5,0c-0.35,0-0.71,0-1.07,0.01
		C180.72,0.29,118.98,26,72.49,72.49C25.74,119.24,0,181.39,0,247.5s25.74,128.26,72.49,175.01
		c46.49,46.49,108.23,72.2,173.94,72.48V454.9z M174.9,80.31c-1.94,5.83-3.77,11.91-5.48,18.2c-14.01-5.69-27.4-12.92-39.92-21.59
		c17.64-12.24,37.25-21.81,58.27-28.14C183.29,57.68,178.97,68.1,174.9,80.31z M187.77,446.22c-21.02-6.33-40.63-15.9-58.27-28.14
		c12.52-8.67,25.91-15.9,39.92-21.59c1.71,6.29,3.54,12.37,5.48,18.2C178.97,426.9,183.29,437.32,187.77,446.22z M160.68,138.03
		c-4.867,27.667-7.837,57.967-8.723,89.47H40.964c4.603-47.895,25.555-91.082,57.196-123.91
		C117.33,118.11,138.4,129.68,160.68,138.03z M151.957,267.5c0.887,31.503,3.856,61.803,8.723,89.47
		c-22.28,8.35-43.35,19.92-62.52,34.44c-31.641-32.828-52.593-76.015-57.196-123.91H151.957z"/>
	<path style="fill:#CD2A00;" d="M427.7,107.321c0,22.05-17.95,40-40,40v132.31l9.648-12.13l31.815-40l20.715-26.044l22.012-27.676
		c2.928-3.702,5.587-7.594,7.987-11.631C489.689,145.641,495,126.613,495,107.321c0-59.17-48.14-107.3-107.3-107.3v67.3
		C409.75,67.321,427.7,85.26,427.7,107.321z"/>
	<path style="fill:#D8D7DA;" d="M427.7,107.321c0-22.06-17.95-40-40-40v80C409.75,147.321,427.7,129.371,427.7,107.321z"/>
	<path style="fill:#FF3501;" d="M281.592,91.334c-0.783,5.217-1.192,10.555-1.192,15.987c0,1.269,0.035,2.537,0.081,3.803
		c0.486,13.486,3.548,26.77,8.925,39.086c2.456,5.627,5.387,11.055,8.784,16.204c1.677,2.542,3.463,5.018,5.36,7.416l39.335,49.455
		l3.352,4.215l31.815,40l9.648,12.13v-132.31c-22.06,0-40-17.95-40-40c0-22.06,17.94-40,40-40v-67.3
		c-20.027,0-38.786,5.52-54.846,15.11C305.822,31.272,286.448,58.956,281.592,91.334z"/>
	<path style="fill:#FFFFFF;" d="M387.7,67.321c-22.06,0-40,17.94-40,40c0,22.05,17.94,40,40,40V67.321z"/>
</g>
<g>
</g>
<g>
</g>
<g>
</g>
<g>
</g>
<g>
</g>
<g>
</g>
<g>
</g>
<g>
</g>
<g>
</g>
<g>
</g>
<g>
</g>
<g>
</g>
<g>
</g>
<g>
</g>
<g>
</g>
</svg>
